# xmcd
#
# Track frame offsets: 
#        182
#        12440
#        28382
#        45762
#        62947
#        76150
#        92572
#        102660
#        121217
#        140910
#        155082
#        171112
#        188267
#        203740
#        222725
#        236317
#        250165
#        267530
#
# Disc length: 3779 seconds
#
# Revision: 0
# Processed by: cddbd v1.5.1PL2 Copyright (c) Steve Scherf et al.
# Submitted via: ExactAudioCopy v0.95b3
#
DISCID=fe0ec112
DTITLE=Ray Charles - Gold Collection
DYEAR=1992
DGENRE=Blues
TTITLE0=Rock And Roll Shoes
TTITLE1=Nothing Like A Hundred Miles
TTITLE2=Born To Love Me
TTITLE3=Do I Ever Cross Your Mind
TTITLE4=It Ain't Gonna Worry My Mind
TTITLE5=A Little Bit Of Heaven
TTITLE6=We Didn't See A Thing (Wiht G. Jones And Feat. C. Atkins)
TTITLE7=Ain't Your Memory Got No Pride At All
TTITLE8=3/4 Time
TTITLE9=I Wish You Were Here Tonight
TTITLE10=Anybody Wiht The Blues
TTITLE11=Dixie Moon
TTITLE12=Over And Over (Again)
TTITLE13=Love Is Woth The Pain
TTITLE14=(All I Wann Do Is) Lay Around And Love On You
TTITLE15=This Old Heart (Is Gonna Rise Again)
TTITLE16=Seven Spanish Angels (With Willie Nelson)
TTITLE17=Let Your Love Flow
EXTD=
EXTT0=
EXTT1=
EXTT2=
EXTT3=
EXTT4=
EXTT5=
EXTT6=
EXTT7=
EXTT8=
EXTT9=
EXTT10=
EXTT11=
EXTT12=
EXTT13=
EXTT14=
EXTT15=
EXTT16=
EXTT17=
PLAYORDER=
